<?xml version="1.0" standalone="no"?>
<!DOCTYPE svg PUBLIC "-//W3C//DTD SVG 20010904//EN"
 "http://www.w3.org/TR/2001/REC-SVG-20010904/DTD/svg10.dtd">
<svg version="1.0" xmlns="http://www.w3.org/2000/svg"
 width="914.000000pt" height="914.000000pt" viewBox="0 0 914.000000 914.000000"
 preserveAspectRatio="xMidYMid meet">
<metadata>
Created by potrace 1.14, written by Peter Selinger 2001-2017
</metadata>
<g transform="translate(0.000000,914.000000) scale(0.100000,-0.100000)"
fill="#000000" stroke="none">
<path d="M6567 8692 l-208 -2 -72 -113 c-40 -61 -86 -133 -102 -159 -17 -26
-68 -107 -115 -179 -47 -73 -87 -138 -89 -143 -2 -6 -9 -16 -15 -22 -6 -7 -31
-45 -56 -84 -25 -40 -76 -122 -115 -181 -38 -60 -110 -172 -160 -249 -49 -78
-121 -189 -159 -248 -38 -59 -110 -172 -161 -252 -50 -80 -118 -185 -150 -235
-119 -185 -241 -375 -260 -407 -9 -16 -90 -141 -223 -348 -30 -47 -71 -110
-90 -140 -67 -105 -77 -120 -82 -120 -3 0 -32 40 -65 88 -34 48 -254 364 -490
702 -236 338 -509 730 -607 870 -97 140 -183 263 -190 273 -7 10 -119 169
-248 355 -129 185 -274 392 -322 460 l-86 123 -1249 0 -1248 0 2 -843 c4
-2721 18 -7353 22 -7383 1 -14 413 -14 423 0 5 6 8 6 8 -1 0 -8 11 -9 35 -4
23 5 36 4 40 -4 3 -8 7 -7 11 2 3 6 10 9 16 6 12 -7 128 -11 128 -4 0 3 49 3
110 0 61 -3 110 -3 110 0 0 3 14 5 30 5 17 0 30 -4 30 -10 0 -5 5 -3 10 5 7
11 10 11 10 2 0 -7 5 -10 10 -7 15 9 124 10 139 1 6 -4 11 -1 11 6 0 9 3 9 10
-2 5 -8 10 -10 10 -5 0 7 226 10 658 10 361 0 675 2 697 5 l39 5 -2 820 c-6
2303 -7 3245 -2 3245 3 0 77 -109 165 -242 88 -132 166 -247 173 -254 6 -7 12
-15 12 -18 0 -4 1423 -2140 1435 -2154 3 -3 71 -4 225 -2 l75 0 67 103 c88
136 152 236 423 657 125 195 255 398 289 450 57 87 688 1068 1021 1588 77 120
264 410 415 645 151 235 332 516 402 625 70 108 142 221 160 250 27 44 836
1302 1017 1582 30 47 160 249 289 450 129 201 252 391 273 423 22 32 39 59 39
61 0 3 -2216 2 -2473 -2z"/>
<path d="M6317 4033 c-11 -12 -33 -44 -51 -73 -17 -28 -87 -138 -156 -245 -69
-108 -132 -206 -140 -219 -8 -14 -44 -70 -80 -125 -36 -56 -76 -119 -90 -141
-36 -57 -323 -505 -397 -619 -34 -53 -76 -118 -93 -146 -17 -27 -64 -102 -104
-165 -55 -84 -72 -119 -65 -130 5 -8 37 -55 72 -105 102 -145 720 -1024 853
-1215 68 -96 129 -183 136 -192 7 -10 42 -60 78 -112 l65 -94 73 -4 c39 -2 72
-1 72 2 0 3 11 5 25 5 14 0 25 -4 25 -10 0 -7 3 -7 8 0 4 6 169 10 457 10 288
0 453 -4 457 -10 5 -6 8 -6 8 2 0 13 18 12 39 -1 8 -5 12 -5 8 0 -7 13 576 12
585 -1 5 -6 8 -6 8 2 0 13 18 12 39 -1 8 -5 12 -5 8 0 -7 13 896 12 905 -1 5
-6 8 -6 8 2 0 13 18 12 39 -1 10 -7 12 -6 6 4 -6 10 -4 12 8 7 10 -3 17 -4 17
-2 0 3 -165 240 -367 528 -583 829 -577 821 -717 1022 -51 73 -633 902 -765
1090 -19 28 -65 93 -101 145 -108 155 -563 805 -566 809 -2 2 -68 5 -146 5
-134 1 -144 0 -161 -21z"/>
</g>
</svg>
